<svg width="160" height="160" viewBox="0 0 160 160" fill="none" xmlns="http://www.w3.org/2000/svg">
<path d="M59.2 68L97.36 1.92C91.76 0.72 86 0 80 0C60.8 0 43.2 6.8 29.44 18L58.72 68.8L59.2 68ZM156.32 56C148.96 32.64 131.12 13.92 108.32 5.28L79.04 56H156.32ZM158.4 64H98.48L100.8 68L138.88 134C152 119.76 160 100.88 160 80C160 74.48 159.44 69.2 158.4 64ZM52.32 80L21.12 26C8.08 40.24 0 59.12 0 80C0 85.52 0.56 90.8 1.6 96H61.52L52.32 80ZM3.68 104C11.04 127.36 28.88 146.08 51.68 154.72L80.96 104H3.68ZM93.84 104L62.64 158.08C68.24 159.28 74 160 80 160C99.2 160 116.8 153.2 130.56 142L101.28 91.2L93.84 104Z" fill="black"/>
</svg>
